{"images":[{"uri":"follower_ChrismasKaren_skin.png","name":"follower_ChrismasKaren_skin.png"},{"uri":"follower_ChrismasKaren_body.png","name":"follower_ChrismasKaren_body.png"},{"uri":"follower_ChrismasKaren_skin_nm.png","name":"follower_ChrismasKaren_skin_nm.png"},{"uri":"follower_ChrismasKaren_body_nm.png","name":"follower_ChrismasKaren_body_nm.png"}],"accessors":[{"componentType":5126,"bufferView":0,"count":1,"type":"SCALAR","byteOffset":0},{"componentType":5123,"bufferView":1,"count":2406,"type":"SCALAR","byteOffset":0},{"componentType":5123,"bufferView":1,"count":12375,"type":"SCALAR","byteOffset":4812},{"componentType":5123,"bufferView":1,"count":4878,"type":"SCALAR","byteOffset":29564},{"componentType":5123,"bufferView":1,"count":33666,"type":"SCALAR","byteOffset":39320},{"componentType":5126,"max":[0.003111559897661209,0.0013298839330673218,0.0015800236724317074],"bufferView":2,"count":522,"type":"VEC3","min":[-0.003111559897661209,-0.0013298839330673218,-0.0015800142427906394],"byteOffset":0},{"componentType":5126,"bufferView":2,"count":522,"type":"VEC3","byteOffset":12},{"componentType":5126,"bufferView":2,"count":522,"type":"VEC2","byteOffset":24},{"componentType":5126,"max":[0.0019343913299962878,0.0015958943404257298,0.00530652143061161],"bufferView":3,"count":2870,"type":"VEC3","min":[-0.0019343948224559426,-0.0015958943404257298,-0.005306503735482693],"byteOffset":0},{"componentType":5126,"bufferView":3,"count":2870,"type":"VEC3","byteOffset":12},{"componentType":5126,"bufferView":3,"count":2870,"type":"VEC2","byteOffset":24},{"componentType":5126,"max":[0.0007731199730187654,0.0007650749175809324,0.0009235357865691185],"bufferView":4,"count":1020,"type":"VEC3","min":[-0.0007731199730187654,-0.0007650749175809324,-0.0009235346224159002],"byteOffset":0},{"componentType":5126,"bufferView":4,"count":1020,"type":"VEC3","byteOffset":12},{"componentType":5126,"bufferView":4,"count":1020,"type":"VEC2","byteOffset":24},{"componentType":5126,"max":[0.004912990145385265,0.0020040543749928474,0.008656848222017288],"bufferView":5,"count":6863,"type":"VEC3","min":[-0.004912990145385265,-0.0020040543749928474,-0.008656858466565609],"byteOffset":0},{"componentType":5126,"bufferView":5,"count":6863,"type":"VEC3","byteOffset":12},{"componentType":5126,"bufferView":5,"count":6863,"type":"VEC2","byteOffset":24}],"textures":[{"source":0,"sampler":0},{"source":1,"sampler":0},{"source":2,"sampler":0},{"source":3,"sampler":0}],"buffers":[{"byteLength":467456,"uri":"buffer.bin"}],"bufferViews":[{"byteLength":4,"byteOffset":0,"buffer":0},{"byteLength":106652,"target":34963,"byteOffset":4,"buffer":0},{"byteLength":16704,"byteStride":32,"target":34962,"byteOffset":106656,"buffer":0},{"byteLength":91840,"byteStride":32,"target":34962,"byteOffset":123360,"buffer":0},{"byteLength":32640,"byteStride":32,"target":34962,"byteOffset":215200,"buffer":0},{"byteLength":219616,"byteStride":32,"target":34962,"byteOffset":247840,"buffer":0}],"samplers":[{"magFilter":9729,"minFilter":9987}],"scene":0,"nodes":[{"children":[1,2,3,4],"name":"RootNode"},{"rotation":[-0.70710676908493,0,0,0.70710676908493],"name":"Follower_Christmaskaren(Follower_Xmaskaren_skin)_0","translation":[0.000263109192019328,0.0134862828999758,0.000477565365144983],"mesh":0},{"rotation":[-0.70710676908493,0,0,0.70710676908493],"name":"Follower_Christmaskaren(Follower_Xmaskaren_hair)_0","translation":[0.000305147172184661,0.0122024267911911,0.000379615870770067],"mesh":1},{"rotation":[-0.70710676908493,0,0,0.70710676908493],"name":"Follower_Christmaskaren(Follower_Xmaskaren_face)_0","translation":[0.000263109192019328,0.0160766337066889,0.000145815283758566],"mesh":2},{"rotation":[-0.70710676908493,0,0,0.70710676908493],"name":"Follower_Christmaskaren(Follower_Xmaskaren_body)_0","translation":[0.000263109192019328,0.00850104540586472,-0.000188845398952253],"mesh":3},{"children":[0],"name":"Pivot","translation":[-0.0002631091920193276,0.00015581686816626243,0.00010869477306643064]}],"materials":[{"normalTexture":{"index":2},"pbrMetallicRoughness":{"roughnessFactor":0.806901276111603,"baseColorFactor":[1,1,1,1],"baseColorTexture":{"index":0},"metallicFactor":0.400000005960464},"extensions":{"KHR_materials_volume":{"attenuationColor":[0.744530171266715,0.1061560678127439,0.1061560678127439],"thicknessFactor":1,"attenuationDistance":1},"KHR_materials_specular":{"specularFactor":0.3}},"name":"follower_ChrismasKaren_skin"},{"normalTexture":{"index":3},"pbrMetallicRoughness":{"roughnessFactor":0.64,"baseColorFactor":[1,1,1,1],"baseColorTexture":{"index":1},"metallicFactor":0.39},"extensions":{"KHR_materials_specular":{"specularFactor":0.3}},"name":"follower_ChrismasKaren_body"}],"animations":[{"samplers":[],"channels":[],"name":"Take 001"}],"scenes":[{"nodes":[5],"name":"Root Scene"}],"asset":{"generator":"CG美术之家","source":"https://www.cgmszj.com/model/101393.html","version":"2.0"},"meshes":[{"primitives":[{"mode":4,"indices":1,"material":0,"attributes":{"POSITION":5,"TEXCOORD_0":7,"NORMAL":6}}],"name":"Follower_Christmaskaren(Follower_Xmaskaren_skin)_0"},{"primitives":[{"mode":4,"indices":2,"material":0,"attributes":{"POSITION":8,"TEXCOORD_0":10,"NORMAL":9}}],"name":"Follower_Christmaskaren(Follower_Xmaskaren_hair)_0"},{"primitives":[{"mode":4,"indices":3,"material":0,"attributes":{"POSITION":11,"TEXCOORD_0":13,"NORMAL":12}}],"name":"Follower_Christmaskaren(Follower_Xmaskaren_face)_0"},{"primitives":[{"mode":4,"indices":4,"material":1,"attributes":{"POSITION":14,"TEXCOORD_0":16,"NORMAL":15}}],"name":"Follower_Christmaskaren(Follower_Xmaskaren_body)_0"}]}